{
  "accessors": [
    {
      "bufferView": 2,
      "componentType": 5126,
      "count": 65532,
      "max": [
        2.5097301006317139,
        0.04562000185251236,
        0.05471000075340271
      ],
      "min": [
        -2.5064499378204346,
        -3.3637700080871582,
        -0.2298399955034256
      ],
      "type": "VEC3"
    },
    {
      "bufferView": 2,
      "byteOffset": 786384,
      "componentType": 5126,
      "count": 65532,
      "max": [
        1,
        1,
        1
      ],
      "min": [
        -1,
        -1,
        -1
      ],
      "type": "VEC3"
    },
    {
      "bufferView": 3,
      "componentType": 5126,
      "count": 65532,
      "max": [
        1,
        1,
        1,
        1
      ],
      "min": [
        -1,
        -1,
        -1,
        -1
      ],
      "type": "VEC4"
    },
    {
      "bufferView": 2,
      "byteOffset": 1572768,
      "componentType": 5126,
      "count": 65532,
      "max": [
        1,
        1,
        1
      ],
      "min": [
        0.99607843160629272,
        0.99607843160629272,
        0.99607843160629272
      ],
      "type": "VEC3"
    },
    {
      "bufferView": 1,
      "componentType": 5126,
      "count": 65532,
      "max": [
        0.99840998649597168,
        0.99935001134872437
      ],
      "min": [
        0.0019799999427050352,
        0.00080999999772757292
      ],
      "type": "VEC2"
    },
    {
      "bufferView": 0,
      "componentType": 5125,
      "count": 244521,
      "max": [
        65531
      ],
      "min": [
        0
      ],
      "type": "SCALAR"
    },
    {
      "bufferView": 2,
      "byteOffset": 2359152,
      "componentType": 5126,
      "count": 11478,
      "max": [
        2.1261000633239746,
        -0.66686999797821045,
        0.021199999377131462
      ],
      "min": [
        -2.1651599407196045,
        -2.1830000877380371,
        -0.024439999833703041
      ],
      "type": "VEC3"
    },
    {
      "bufferView": 2,
      "byteOffset": 2496888,
      "componentType": 5126,
      "count": 11478,
      "max": [
        0.90137398242950439,
        0.90343105792999268,
        1
      ],
      "min": [
        -0.89516210556030273,
        -0.91907787322998047,
        -1
      ],
      "type": "VEC3"
    },
    {
      "bufferView": 3,
      "byteOffset": 1048512,
      "componentType": 5126,
      "count": 11478,
      "max": [
        0.99991989135742188,
        1,
        0.90701156854629517,
        1
      ],
      "min": [
        -0.9999956488609314,
        -0.99800550937652588,
        -0.89094924926757812,
        -1
      ],
      "type": "VEC4"
    },
    {
      "bufferView": 2,
      "byteOffset": 2634624,
      "componentType": 5126,
      "count": 11478,
      "max": [
        1,
        1,
        1
      ],
      "min": [
        1,
        1,
        1
      ],
      "type": "VEC3"
    },
    {
      "bufferView": 1,
      "byteOffset": 524256,
      "componentType": 5126,
      "count": 11478,
      "max": [
        0.88704001903533936,
        0.87738001346588135
      ],
      "min": [
        0.72123998403549194,
        0.40582001209259033
      ],
      "type": "VEC2"
    },
    {
      "bufferView": 0,
      "byteOffset": 978084,
      "componentType": 5125,
      "count": 33192,
      "max": [
        11477
      ],
      "min": [
        0
      ],
      "type": "SCALAR"
    },
    {
      "bufferView": 2,
      "byteOffset": 2772360,
      "componentType": 5126,
      "count": 13128,
      "max": [
        2.0598700046539307,
        -0.7156599760055542,
        0.042989999055862427
      ],
      "min": [
        -2.0608899593353271,
        -2.0041699409484863,
        0.017699999734759331
      ],
      "type": "VEC3"
    },
    {
      "bufferView": 2,
      "byteOffset": 2929896,
      "componentType": 5126,
      "count": 13128,
      "max": [
        1,
        1,
        1
      ],
      "min": [
        -1,
        -1,
        -0.005860145203769207
      ],
      "type": "VEC3"
    },
    {
      "bufferView": 3,
      "byteOffset": 1232160,
      "componentType": 5126,
      "count": 13128,
      "max": [
        1,
        1,
        0.99998831748962402,
        1
      ],
      "min": [
        -0.4650457501411438,
        -0.60706347227096558,
        -0.99907124042510986,
        1
      ],
      "type": "VEC4"
    },
    {
      "bufferView": 2,
      "byteOffset": 3087432,
      "componentType": 5126,
      "count": 13128,
      "max": [
        1,
        1,
        1
      ],
      "min": [
        1,
        1,
        1
      ],
      "type": "VEC3"
    },
    {
      "bufferView": 1,
      "byteOffset": 616080,
      "componentType": 5126,
      "count": 13128,
      "max": [
        0.50947999954223633,
        0.35738998651504517
      ],
      "min": [
        0.11744999885559082,
        0.0054600001312792301
      ],
      "type": "VEC2"
    },
    {
      "bufferView": 0,
      "byteOffset": 1110852,
      "componentType": 5125,
      "count": 55176,
      "max": [
        13127
      ],
      "min": [
        0
      ],
      "type": "SCALAR"
    },
    {
      "bufferView": 2,
      "byteOffset": 3244968,
      "componentType": 5126,
      "count": 7456,
      "max": [
        2.0605499744415283,
        -0.71495002508163452,
        0.026359999552369118
      ],
      "min": [
        -2.0615599155426025,
        -2.0048799514770508,
        0.0092099998146295547
      ],
      "type": "VEC3"
    },
    {
      "bufferView": 2,
      "byteOffset": 3334440,
      "componentType": 5126,
      "count": 7456,
      "max": [
        1,
        1,
        0.1504300981760025
      ],
      "min": [
        -1,
        -1,
        -0.12070073187351227
      ],
      "type": "VEC3"
    },
    {
      "bufferView": 3,
      "byteOffset": 1442208,
      "componentType": 5126,
      "count": 7456,
      "max": [
        1,
        0.99999779462814331,
        0.99999451637268066,
        1
      ],
      "min": [
        -0.47187185287475586,
        -0.56508165597915649,
        -0.99907124042510986,
        1
      ],
      "type": "VEC4"
    },
    {
      "bufferView": 2,
      "byteOffset": 3423912,
      "componentType": 5126,
      "count": 7456,
      "max": [
        1,
        1,
        1
      ],
      "min": [
        1,
        1,
        1
      ],
      "type": "VEC3"
    },
    {
      "bufferView": 1,
      "byteOffset": 721104,
      "componentType": 5126,
      "count": 7456,
      "max": [
        0.51165997982025146,
        0.35951000452041626
      ],
      "min": [
        0.11559999734163284,
        0.0032999999821186066
      ],
      "type": "VEC2"
    },
    {
      "bufferView": 0,
      "byteOffset": 1331556,
      "componentType": 5125,
      "count": 29856,
      "max": [
        7455
      ],
      "min": [
        0
      ],
      "type": "SCALAR"
    },
    {
      "bufferView": 2,
      "byteOffset": 3513384,
      "componentType": 5126,
      "count": 3706,
      "max": [
        2.5058200359344482,
        -0.29756999015808105,
        0.054200001060962677
      ],
      "min": [
        -2.0829100608825684,
        -2.299109935760498,
        -0.024569999426603317
      ],
      "type": "VEC3"
    },
    {
      "bufferView": 2,
      "byteOffset": 3557856,
      "componentType": 5126,
      "count": 3706,
      "max": [
        0.99946969747543335,
        0.99248212575912476,
        1
      ],
      "min": [
        -0.95693635940551758,
        -0.99417048692703247,
        -0.9994092583656311
      ],
      "type": "VEC3"
    },
    {
      "bufferView": 3,
      "byteOffset": 1561504,
      "componentType": 5126,
      "count": 3706,
      "max": [
        1,
        0.99999988079071045,
        0.99817204475402832,
        1
      ],
      "min": [
        -0.95554709434509277,
        -0.92476385831832886,
        -0.65262907743453979,
        -1
      ],
      "type": "VEC4"
    },
    {
      "bufferView": 2,
      "byteOffset": 3602328,
      "componentType": 5126,
      "count": 3706,
      "max": [
        1,
        1,
        1
      ],
      "min": [
        1,
        1,
        1
      ],
      "type": "VEC3"
    },
    {
      "bufferView": 1,
      "byteOffset": 780752,
      "componentType": 5126,
      "count": 3706,
      "max": [
        0.50520998239517212,
        0.35341998934745789
      ],
      "min": [
        0,
        0
      ],
      "type": "VEC2"
    },
    {
      "bufferView": 0,
      "byteOffset": 1450980,
      "componentType": 5125,
      "count": 14640,
      "max": [
        3705
      ],
      "min": [
        0
      ],
      "type": "SCALAR"
    },
    {
      "bufferView": 2,
      "byteOffset": 3646800,
      "componentType": 5126,
      "count": 32387,
      "max": [
        2.5041699409484863,
        0.14979000389575958,
        3.3725199699401855
      ],
      "min": [
        -2.5041699409484863,
        -0.094690002501010895,
        -0.066720001399517059
      ],
      "type": "VEC3"
    },
    {
      "bufferView": 2,
      "byteOffset": 4035444,
      "componentType": 5126,
      "count": 32387,
      "max": [
        1,
        0.99999266862869263,
        1
      ],
      "min": [
        -1,
        -1,
        -1
      ],
      "type": "VEC3"
    },
    {
      "bufferView": 3,
      "byteOffset": 1620800,
      "componentType": 5126,
      "count": 32387,
      "max": [
        1,
        1,
        1,
        1
      ],
      "min": [
        -1,
        -1,
        -0.99882662296295166,
        1
      ],
      "type": "VEC4"
    },
    {
      "bufferView": 2,
      "byteOffset": 4424088,
      "componentType": 5126,
      "count": 32387,
      "max": [
        1,
        1,
        1
      ],
      "min": [
        0.99607843160629272,
        0.99607843160629272,
        0.99607843160629272
      ],
      "type": "VEC3"
    },
    {
      "bufferView": 1,
      "byteOffset": 810400,
      "componentType": 5126,
      "count": 32387,
      "max": [
        0.99835997819900513,
        0.99779999256134033
      ],
      "min": [
        0.00016999999934341758,
        0.00089000002481043339
      ],
      "type": "VEC2"
    },
    {
      "bufferView": 0,
      "byteOffset": 1509540,
      "componentType": 5125,
      "count": 181248,
      "max": [
        32386
      ],
      "min": [
        0
      ],
      "type": "SCALAR"
    },
    {
      "bufferView": 2,
      "byteOffset": 4812732,
      "componentType": 5126,
      "count": 81,
      "max": [
        2.3311901092529297,
        0.071829997003078461,
        3.1589999198913574
      ],
      "min": [
        -2.3311901092529297,
        0.071829997003078461,
        0.24934999644756317
      ],
      "type": "VEC3"
    },
    {
      "bufferView": 2,
      "byteOffset": 4813704,
      "componentType": 5126,
      "count": 81,
      "max": [
        0,
        -1,
        0
      ],
      "min": [
        0,
        -1,
        0
      ],
      "type": "VEC3"
    },
    {
      "bufferView": 3,
      "byteOffset": 2138992,
      "componentType": 5126,
      "count": 81,
      "max": [
        1,
        0,
        0,
        1
      ],
      "min": [
        1,
        0,
        0,
        1
      ],
      "type": "VEC4"
    },
    {
      "bufferView": 2,
      "byteOffset": 4814676,
      "componentType": 5126,
      "count": 81,
      "max": [
        1,
        1,
        1
      ],
      "min": [
        1,
        1,
        1
      ],
      "type": "VEC3"
    },
    {
      "bufferView": 1,
      "byteOffset": 1069496,
      "componentType": 5126,
      "count": 81,
      "max": [
        1,
        1
      ],
      "min": [
        0,
        0
      ],
      "type": "VEC2"
    },
    {
      "bufferView": 0,
      "byteOffset": 2234532,
      "componentType": 5125,
      "count": 384,
      "max": [
        80
      ],
      "min": [
        0
      ],
      "type": "SCALAR"
    },
    {
      "bufferView": 2,
      "byteOffset": 4815648,
      "componentType": 5126,
      "count": 464,
      "max": [
        699.92083740234375,
        415.42730712890625,
        374.11404418945312
      ],
      "min": [
        -699.97930908203125,
        -415.7996826171875,
        326.65576171875
      ],
      "type": "VEC3"
    },
    {
      "bufferView": 2,
      "byteOffset": 4821216,
      "componentType": 5126,
      "count": 464,
      "max": [
        1,
        1,
        1
      ],
      "min": [
        -1,
        -1,
        -1
      ],
      "type": "VEC3"
    },
    {
      "bufferView": 3,
      "byteOffset": 2140288,
      "componentType": 5126,
      "count": 464,
      "max": [
        1,
        1,
        0.97750908136367798,
        1
      ],
      "min": [
        -1,
        -1,
        -0.97750550508499146,
        1
      ],
      "type": "VEC4"
    },
    {
      "bufferView": 1,
      "byteOffset": 1070144,
      "componentType": 5126,
      "count": 464,
      "max": [
        10.025349617004395,
        1.0168299674987793
      ],
      "min": [
        -0.025350000709295273,
        -9.0168304443359375
      ],
      "type": "VEC2"
    },
    {
      "bufferView": 0,
      "byteOffset": 2236068,
      "componentType": 5125,
      "count": 564,
      "max": [
        463
      ],
      "min": [
        0
      ],
      "type": "SCALAR"
    }
  ],
  "asset": {
    "extras": {
      "author": "Smartways Tech 3D (https://sketchfab.com/abhishekverma)",
      "license": "CC-BY-4.0 (http://creativecommons.org/licenses/by/4.0/)",
      "source": "https://sketchfab.com/models/48cb9699178447f284f15c8ef1d47f6b",
      "title": "Low poly Laptop."
    },
    "generator": "Sketchfab-3.45.3",
    "version": "2.0"
  },
  "bufferViews": [
    {
      "buffer": 0,
      "byteLength": 2238324,
      "byteOffset": 0,
      "name": "floatBufferViews",
      "target": 34963
    },
    {
      "buffer": 0,
      "byteLength": 1073856,
      "byteOffset": 2238324,
      "byteStride": 8,
      "name": "floatBufferViews",
      "target": 34962
    },
    {
      "buffer": 0,
      "byteLength": 4826784,
      "byteOffset": 3312180,
      "byteStride": 12,
      "name": "floatBufferViews",
      "target": 34962
    },
    {
      "buffer": 0,
      "byteLength": 2147712,
      "byteOffset": 8138964,
      "byteStride": 16,
      "name": "floatBufferViews",
      "target": 34962
    }
  ],
  "buffers": [
    {
      "byteLength": 10286676,
      "uri": "scene.bin"
    }
  ],
  "images": [
    {
      "uri": "textures/Material.006_baseColor.jpeg"
    },
    {
      "uri": "textures/Oak_Polished_-_baseColor.jpeg"
    },
    {
      "uri": "textures/Display_emissive.png"
    },
    {
      "uri": "textures/Display_baseColor.png"
    },
    {
      "uri": "textures/material_baseColor.jpeg"
    }
  ],
  "materials": [
    {
      "doubleSided": true,
      "emissiveFactor": [
        0,
        0,
        0
      ],
      "name": "Oak_Polished_-",
      "pbrMetallicRoughness": {
        "baseColorFactor": [
          0.69073932930000004,
          0.69073932930000004,
          0.69073932930000004,
          1
        ],
        "baseColorTexture": {
          "index": 1,
          "texCoord": 0
        },
        "metallicFactor": 0.050000000000000003,
        "roughnessFactor": 0.59999999999999998
      }
    },
    {
      "doubleSided": true,
      "emissiveFactor": [
        0,
        0,
        0
      ],
      "name": "Material.006",
      "pbrMetallicRoughness": {
        "baseColorFactor": [
          1,
          1,
          1,
          1
        ],
        "baseColorTexture": {
          "index": 0,
          "texCoord": 0
        },
        "metallicFactor": 1,
        "roughnessFactor": 0.7334222561
      }
    },
    {
      "doubleSided": true,
      "emissiveFactor": [
        0.44397865850000001,
        0.44397865850000001,
        0.44397865850000001
      ],
      "emissiveTexture": {
        "index": 2,
        "texCoord": 0
      },
      "name": "Display",
      "pbrMetallicRoughness": {
        "baseColorFactor": [
          1,
          1,
          1,
          1
        ],
        "baseColorTexture": {
          "index": 3,
          "texCoord": 0
        },
        "metallicFactor": 1,
        "roughnessFactor": 0
      }
    },
    {
      "doubleSided": true,
      "emissiveFactor": [
        0,
        0,
        0
      ],
      "name": "material",
      "pbrMetallicRoughness": {
        "baseColorFactor": [
          1,
          1,
          1,
          1
        ],
        "baseColorTexture": {
          "index": 4,
          "texCoord": 0
        },
        "metallicFactor": 0.050000000000000003,
        "roughnessFactor": 0.59999999999999998
      }
    },
    {
      "doubleSided": true,
      "name": "Material.010",
      "pbrMetallicRoughness": {
        "baseColorFactor": [
          1,
          1,
          1,
          1
        ],
        "metallicFactor": 1,
        "roughnessFactor": 0.59999999999999998
      }
    },
    {
      "doubleSided": true,
      "name": "Material.011",
      "pbrMetallicRoughness": {
        "baseColorFactor": [
          1,
          1,
          1,
          1
        ],
        "metallicFactor": 1,
        "roughnessFactor": 0.59999999999999998
      }
    }
  ],
  "meshes": [
    {
      "name": "Plane.005_0",
      "primitives": [
        {
          "attributes": {
            "COLOR_0": 3,
            "NORMAL": 1,
            "POSITION": 0,
            "TANGENT": 2,
            "TEXCOORD_0": 4
          },
          "indices": 5,
          "material": 1,
          "mode": 4
        }
      ]
    },
    {
      "name": "Plane.005_0",
      "primitives": [
        {
          "attributes": {
            "COLOR_0": 9,
            "NORMAL": 7,
            "POSITION": 6,
            "TANGENT": 8,
            "TEXCOORD_0": 10
          },
          "indices": 11,
          "material": 1,
          "mode": 4
        }
      ]
    },
    {
      "name": "Plane.005_1",
      "primitives": [
        {
          "attributes": {
            "COLOR_0": 15,
            "NORMAL": 13,
            "POSITION": 12,
            "TANGENT": 14,
            "TEXCOORD_0": 16
          },
          "indices": 17,
          "material": 3,
          "mode": 4
        }
      ]
    },
    {
      "name": "Plane.005_2",
      "primitives": [
        {
          "attributes": {
            "COLOR_0": 21,
            "NORMAL": 19,
            "POSITION": 18,
            "TANGENT": 20,
            "TEXCOORD_0": 22
          },
          "indices": 23,
          "material": 4,
          "mode": 4
        }
      ]
    },
    {
      "name": "Plane.005_3",
      "primitives": [
        {
          "attributes": {
            "COLOR_0": 27,
            "NORMAL": 25,
            "POSITION": 24,
            "TANGENT": 26,
            "TEXCOORD_0": 28
          },
          "indices": 29,
          "material": 5,
          "mode": 4
        }
      ]
    },
    {
      "name": "Plane.002_0",
      "primitives": [
        {
          "attributes": {
            "COLOR_0": 33,
            "NORMAL": 31,
            "POSITION": 30,
            "TANGENT": 32,
            "TEXCOORD_0": 34
          },
          "indices": 35,
          "material": 1,
          "mode": 4
        }
      ]
    },
    {
      "name": "Plane.002_1",
      "primitives": [
        {
          "attributes": {
            "COLOR_0": 39,
            "NORMAL": 37,
            "POSITION": 36,
            "TANGENT": 38,
            "TEXCOORD_0": 40
          },
          "indices": 41,
          "material": 2,
          "mode": 4
        }
      ]
    },
    {
      "name": "table_top_0",
      "primitives": [
        {
          "attributes": {
            "NORMAL": 43,
            "POSITION": 42,
            "TANGENT": 44,
            "TEXCOORD_0": 45
          },
          "indices": 46,
          "material": 0,
          "mode": 4
        }
      ]
    }
  ],
  "nodes": [
    {
      "children": [
        1
      ],
      "name": "RootNode (gltf orientation matrix)",
      "rotation": [
        -0.70710678118654746,
        -0,
        -0,
        0.70710678118654757
      ]
    },
    {
      "children": [
        2
      ],
      "name": "RootNode (model correction matrix)"
    },
    {
      "children": [
        3,
        9,
        12
      ],
      "name": "Root"
    },
    {
      "children": [
        4,
        5,
        6,
        7,
        8
      ],
      "matrix": [
        1,
        0,
        0,
        0,
        0,
        1,
        0,
        0,
        0,
        0,
        1,
        0,
        0,
        1.47041,
        0.24987000000000001,
        1
      ],
      "name": "Plane.005"
    },
    {
      "mesh": 0,
      "name": "Plane.005_0"
    },
    {
      "mesh": 1,
      "name": "Plane.005_0"
    },
    {
      "mesh": 2,
      "name": "Plane.005_1"
    },
    {
      "mesh": 3,
      "name": "Plane.005_2"
    },
    {
      "mesh": 4,
      "name": "Plane.005_3"
    },
    {
      "children": [
        10,
        11
      ],
      "matrix": [
        1,
        0,
        0,
        0,
        0,
        0.86603000000000008,
        -0.5,
        0,
        -0,
        0.5,
        0.86603000000000008,
        0,
        0,
        1.47041,
        0.24987000000000001,
        1
      ],
      "name": "Plane.002"
    },
    {
      "mesh": 5,
      "name": "Plane.002_0"
    },
    {
      "mesh": 6,
      "name": "Plane.002_1"
    },
    {
      "children": [
        13
      ],
      "matrix": [
        0.0010000000000000002,
        0,
        0,
        0,
        0,
        0.0010000000000000002,
        0,
        0,
        0,
        0,
        0.0010000000000000002,
        0,
        0,
        0,
        0,
        1
      ],
      "name": "table"
    },
    {
      "children": [
        14
      ],
      "matrix": [
        7.9371099999999997,
        0,
        0,
        0,
        0,
        7.9371099999999997,
        0,
        0,
        0,
        0,
        1.9770299999999998,
        0,
        403.62927000000002,
        17.52983,
        -707.69695999999999,
        1
      ],
      "name": "table_top"
    },
    {
      "mesh": 7,
      "name": "table_top_0"
    }
  ],
  "samplers": [
    {
      "magFilter": 9729,
      "minFilter": 9987,
      "wrapS": 10497,
      "wrapT": 10497
    },
    {
      "magFilter": 9728,
      "minFilter": 9728,
      "wrapS": 10497,
      "wrapT": 33648
    }
  ],
  "scene": 0,
  "scenes": [
    {
      "name": "OSG_Scene",
      "nodes": [
        0
      ]
    }
  ],
  "textures": [
    {
      "sampler": 0,
      "source": 0
    },
    {
      "sampler": 1,
      "source": 1
    },
    {
      "sampler": 0,
      "source": 2
    },
    {
      "sampler": 0,
      "source": 3
    },
    {
      "sampler": 0,
      "source": 4
    }
  ]
}

