{
  "accessors": [
    {
      "bufferView": 0,
      "byteOffset": 0,
      "componentType": 5123,
      "count": 336,
      "max": [
        191.0
      ],
      "min": [
        0.0
      ],
      "name": "buffer-0-group-0-mesh-0-indices",
      "type": "SCALAR"
    },
    {
      "bufferView": 1,
      "byteOffset": 0,
      "componentType": 5126,
      "count": 192,
      "max": [
        1.2394030094146729,
        0.2061759978532791,
        0.8662989735603333
      ],
      "min": [
        -1.2394030094146729,
        2.530000056140125E-4,
        -0.8662989735603333
      ],
      "name": "buffer-0-group-0-mesh-0-position",
      "type": "VEC3"
    },
    {
      "bufferView": 1,
      "byteOffset": 2304,
      "componentType": 5126,
      "count": 192,
      "max": [
        1.0,
        1.0,
        1.0
      ],
      "min": [
        -1.0,
        -1.0,
        -1.0
      ],
      "name": "buffer-0-group-0-mesh-0-normal",
      "type": "VEC3"
    },
    {
      "bufferView": 2,
      "byteOffset": 0,
      "componentType": 5126,
      "count": 192,
      "max": [
        0.9671199917793274,
        -0.209974005818367
      ],
      "min": [
        0.21996000409126282,
        -0.9690920114517212
      ],
      "name": "buffer-0-group-0-mesh-0-texcoord",
      "type": "VEC2"
    },
    {
      "bufferView": 0,
      "byteOffset": 672,
      "componentType": 5123,
      "count": 1704,
      "max": [
        490.0
      ],
      "min": [
        0.0
      ],
      "name": "buffer-0-group-1-mesh-0-indices",
      "type": "SCALAR"
    },
    {
      "bufferView": 1,
      "byteOffset": 4608,
      "componentType": 5126,
      "count": 491,
      "max": [
        1.3111480474472046,
        1.9905229806900024,
        1.0
      ],
      "min": [
        -1.309999942779541,
        0.18140800297260284,
        -1.0000749826431274
      ],
      "name": "buffer-0-group-1-mesh-0-position",
      "type": "VEC3"
    },
    {
      "bufferView": 1,
      "byteOffset": 10500,
      "componentType": 5126,
      "count": 491,
      "max": [
        1.0,
        1.0,
        1.0
      ],
      "min": [
        -1.0,
        -1.0,
        -1.0
      ],
      "name": "buffer-0-group-1-mesh-0-normal",
      "type": "VEC3"
    },
    {
      "bufferView": 2,
      "byteOffset": 1536,
      "componentType": 5126,
      "count": 491,
      "max": [
        1.0,
        -0.0
      ],
      "min": [
        0.0,
        -1.0
      ],
      "name": "buffer-0-group-1-mesh-0-texcoord",
      "type": "VEC2"
    },
    {
      "bufferView": 0,
      "byteOffset": 4080,
      "componentType": 5123,
      "count": 2880,
      "max": [
        611.0
      ],
      "min": [
        0.0
      ],
      "name": "buffer-0-group-2-mesh-0-indices",
      "type": "SCALAR"
    },
    {
      "bufferView": 1,
      "byteOffset": 16392,
      "componentType": 5126,
      "count": 612,
      "max": [
        0.998324990272522,
        1.7179080247879028,
        0.46035701036453247
      ],
      "min": [
        0.0582440011203289,
        0.9214969873428345,
        -0.5244140028953552
      ],
      "name": "buffer-0-group-2-mesh-0-position",
      "type": "VEC3"
    },
    {
      "bufferView": 1,
      "byteOffset": 23736,
      "componentType": 5126,
      "count": 612,
      "max": [
        0.9794461131095886,
        0.9936518669128418,
        0.9989783763885498
      ],
      "min": [
        -0.9794895648956299,
        -0.9936518669128418,
        -0.9989911317825317
      ],
      "name": "buffer-0-group-2-mesh-0-normal",
      "type": "VEC3"
    },
    {
      "bufferView": 2,
      "byteOffset": 5464,
      "componentType": 5126,
      "count": 612,
      "max": [
        0.9575660228729248,
        -0.5576670169830322
      ],
      "min": [
        0.39673200249671936,
        -0.9684540033340454
      ],
      "name": "buffer-0-group-2-mesh-0-texcoord",
      "type": "VEC2"
    },
    {
      "bufferView": 0,
      "byteOffset": 9840,
      "componentType": 5123,
      "count": 2880,
      "max": [
        617.0
      ],
      "min": [
        0.0
      ],
      "name": "buffer-0-group-3-mesh-0-indices",
      "type": "SCALAR"
    },
    {
      "bufferView": 1,
      "byteOffset": 31080,
      "componentType": 5126,
      "count": 618,
      "max": [
        0.5210630297660828,
        1.6616630554199219,
        0.5203689932823181
      ],
      "min": [
        -0.5274749994277954,
        0.9376609921455383,
        -0.4874440133571625
      ],
      "name": "buffer-0-group-3-mesh-0-position",
      "type": "VEC3"
    },
    {
      "bufferView": 1,
      "byteOffset": 38496,
      "componentType": 5126,
      "count": 618,
      "max": [
        0.9882896542549133,
        0.9965490102767944,
        0.9932440519332886
      ],
      "min": [
        -0.988303005695343,
        -0.9965490102767944,
        -0.9932225942611694
      ],
      "name": "buffer-0-group-3-mesh-0-normal",
      "type": "VEC3"
    },
    {
      "bufferView": 2,
      "byteOffset": 10360,
      "componentType": 5126,
      "count": 618,
      "max": [
        0.9528650045394897,
        -0.279107004404068
      ],
      "min": [
        0.0,
        -0.9996169805526733
      ],
      "name": "buffer-0-group-3-mesh-0-texcoord",
      "type": "VEC2"
    }
  ],
  "asset": {
    "generator": "Obj2GltfConverter",
    "version": "2.0"
  },
  "bufferViews": [
    {
      "buffer": 0,
      "byteLength": 15600,
      "byteOffset": 0,
      "name": "buffer-0-bufferview-ushort",
      "target": 34963
    },
    {
      "buffer": 0,
      "byteLength": 45912,
      "byteOffset": 15600,
      "byteStride": 12,
      "name": "buffer-0-bufferview-vec3",
      "target": 34962
    },
    {
      "buffer": 0,
      "byteLength": 15304,
      "byteOffset": 61512,
      "byteStride": 8,
      "name": "buffer-0-bufferview-vec2",
      "target": 34962
    }
  ],
  "buffers": [
    {
      "byteLength": 76816,
      "name": "buffer-0",
      "uri": "Chair2.bin"
    }
  ],
  "materials": [
    {
      "alphaMode": "OPAQUE",
      "doubleSided": true,
      "name": "Material.002",
      "pbrMetallicRoughness": {
        "baseColorFactor": [
          0.169785,
          0.184592,
          0.203322,
          1.0
        ],
        "metallicFactor": 0.0,
        "roughnessFactor": 0.7448017359246658
      }
    },
    {
      "alphaMode": "OPAQUE",
      "doubleSided": true,
      "name": "Material",
      "pbrMetallicRoughness": {
        "baseColorFactor": [
          0.778756,
          0.402309,
          7.28E-4,
          1.0
        ],
        "metallicFactor": 0.0,
        "roughnessFactor": 0.7448017359246658
      }
    },
    {
      "alphaMode": "OPAQUE",
      "doubleSided": true,
      "name": "Red.001",
      "pbrMetallicRoughness": {
        "baseColorFactor": [
          0.044903,
          0.187641,
          0.730479,
          1.0
        ],
        "metallicFactor": 0.0,
        "roughnessFactor": 0.7448017359246658
      }
    },
    {
      "alphaMode": "OPAQUE",
      "doubleSided": true,
      "name": "Red",
      "pbrMetallicRoughness": {
        "baseColorFactor": [
          0.658229,
          0.043584,
          0.028481,
          1.0
        ],
        "metallicFactor": 0.0,
        "roughnessFactor": 0.7448017359246658
      }
    }
  ],
  "meshes": [
    {
      "name": "buffer-0-mesh-0",
      "primitives": [
        {
          "attributes": {
            "POSITION": 1,
            "NORMAL": 2,
            "TEXCOORD_0": 3
          },
          "indices": 0,
          "material": 0,
          "mode": 4
        },
        {
          "attributes": {
            "POSITION": 5,
            "NORMAL": 6,
            "TEXCOORD_0": 7
          },
          "indices": 4,
          "material": 1,
          "mode": 4
        },
        {
          "attributes": {
            "POSITION": 9,
            "NORMAL": 10,
            "TEXCOORD_0": 11
          },
          "indices": 8,
          "material": 2,
          "mode": 4
        },
        {
          "attributes": {
            "POSITION": 13,
            "NORMAL": 14,
            "TEXCOORD_0": 15
          },
          "indices": 12,
          "material": 3,
          "mode": 4
        }
      ]
    }
  ],
  "nodes": [
    {
      "mesh": 0,
      "name": "node-0"
    }
  ],
  "scenes": [
    {
      "name": "scene-0",
      "nodes": [
        0
      ]
    }
  ]
}